# xmcd
#
# Track frame offsets: 
#        150
#        14525
#        44212
#        69925
#        95462
#        124872
#
# Disc length: 2097 seconds
#
# Revision: 8
# Processed by: cddbd v1.5.2PL0 Copyright (c) Steve Scherf et al.
# Submitted via: ExactAudioCopy v0.99pb4
#
DISCID=50082f06
DTITLE=Cappella - U and Me
DYEAR=1994
DGENRE=Eurodance
TTITLE0=U and Me (Short Sharp Mix)
TTITLE1=U and Me (Mars Plastic Extended)
TTITLE2=U and Me (R.A.F. Zone)
TTITLE3=U and Me (Bass Line)
TTITLE4=U and Me (House Mix)
TTITLE5=U and Me (Plus Staples Extended)
EXTD=ZYX Music GmbH
EXTT0=
EXTT1=
EXTT2=
EXTT3=
EXTT4=
EXTT5=
PLAYORDER=
